<svg width="104" height="104" viewBox="0 0 104 104" fill="none" xmlns="http://www.w3.org/2000/svg">
    <path d="M51.9999 4.3335C42.5724 4.3335 33.3565 7.1291 25.5178 12.3668C17.679 17.6045 11.5695 25.049 7.96168 33.7589C4.35391 42.4689 3.40995 52.053 5.24918 61.2995C7.0884 70.5459 11.6282 79.0393 18.2945 85.7056C24.9608 92.3719 33.4542 96.9117 42.7006 98.7509C51.9471 100.59 61.5312 99.6462 70.2412 96.0384C78.9511 92.4307 86.3957 86.3211 91.6333 78.4824C96.871 70.6436 99.6666 61.4277 99.6666 52.0002C99.6517 39.3628 94.6249 27.2472 85.6889 18.3112C76.7529 9.3752 64.6374 4.3484 51.9999 4.3335V4.3335ZM51.9999 91.0002C44.2865 91.0002 36.7462 88.7129 30.3327 84.4275C23.9192 80.1421 18.9205 74.0511 15.9686 66.9248C13.0168 59.7985 12.2445 51.9569 13.7493 44.3916C15.2541 36.8264 18.9685 29.8772 24.4228 24.423C29.877 18.9688 36.8262 15.2544 44.3914 13.7495C51.9567 12.2447 59.7983 13.017 66.9246 15.9689C74.0509 18.9207 80.1419 23.9194 84.4273 30.3329C88.7126 36.7464 90.9999 44.2867 90.9999 52.0002C90.9885 62.3401 86.8759 72.2532 79.5644 79.5647C72.253 86.8761 62.3399 90.9887 51.9999 91.0002V91.0002Z" fill="black"/>
    <path d="M70.7373 37.973L47.7966 59.0027L37.7303 48.9363C37.3305 48.5224 36.8524 48.1923 36.3237 47.9652C35.795 47.7381 35.2264 47.6186 34.651 47.6136C34.0756 47.6086 33.505 47.7182 32.9725 47.9361C32.4399 48.154 31.9561 48.4757 31.5492 48.8826C31.1424 49.2895 30.8206 49.7733 30.6027 50.3059C30.3848 50.8384 30.2752 51.409 30.2802 51.9844C30.2852 52.5598 30.4047 53.1284 30.6318 53.6571C30.8589 54.1858 31.1891 54.6639 31.6029 55.0637L44.6029 68.0637C45.3926 68.8535 46.4567 69.3079 47.5733 69.3321C48.6899 69.3563 49.7728 68.9485 50.5959 68.1937L76.596 44.3603C77.443 43.5834 77.9467 42.5019 77.9962 41.3536C78.0458 40.2053 77.6372 39.0843 76.8603 38.2373C76.0834 37.3903 75.0018 36.8866 73.8535 36.837C72.7052 36.7875 71.5843 37.1961 70.7373 37.973V37.973Z" fill="black"/>
</svg>