<svg width="227" height="227" viewBox="0 0 227 227" fill="none" xmlns="http://www.w3.org/2000/svg">
    <path d="M177.145 87.168C174.563 54.3168 147.004 28.375 113.5 28.375C84.8412 28.375 60.2401 46.989 52.3022 74.1368C29.659 81.9967 14.1875 103.448 14.1875 127.688C14.1875 158.978 39.647 184.438 70.9375 184.438H163.156C190.538 184.438 212.812 162.163 212.812 134.781C212.812 112.443 198.128 93.2686 177.145 87.168ZM163.156 170.25H70.9375C47.4643 170.25 28.375 151.161 28.375 127.688C28.375 108.449 41.3778 91.5519 59.9918 86.6005C62.5456 85.9195 64.5106 83.8765 65.0922 81.3015C70.1288 58.8568 90.4879 42.5625 113.5 42.5625C139.704 42.5625 163.128 63.3046 163.128 92.8501C163.128 96.3189 165.632 99.277 169.051 99.8445C186.19 102.717 198.625 117.409 198.625 134.781C198.625 154.339 182.714 170.25 163.156 170.25Z" fill="#4C505B"/>
    <path d="M146.89 101.391C149.664 104.165 149.664 108.648 146.89 111.422C144.117 114.195 139.633 114.195 136.86 111.422L120.594 95.1556V148.969C120.594 152.884 117.416 156.062 113.5 156.062C109.584 156.062 106.406 152.884 106.406 148.969V95.1556L90.1403 111.422C87.3666 114.195 82.8834 114.195 80.1097 111.422C77.3361 108.648 77.3361 104.165 80.1097 101.391L108.485 73.016C111.251 70.2494 115.777 70.2707 118.522 73.016L146.89 101.391Z" fill="#4C505B"/>
</svg>